<svg xmlns="http://www.w3.org/2000/svg" width="300" height="250" viewBox="0 0 300 250">
  <rect width="300" height="250" fill="#F8FAFC"/>
  <!-- Top accent bar -->
  <rect width="300" height="4" fill="#F59E0B"/>
  <!-- Skyline silhouette -->
  <rect x="20"  y="130" width="8"  height="50" fill="#E2E8F0"/>
  <rect x="32"  y="115" width="10" height="65" fill="#CBD5E1"/>
  <!-- Oriental Pearl sphere -->
  <rect x="48"  y="100" width="7"  height="80" fill="#CBD5E1"/>
  <ellipse cx="51.5" cy="100" rx="9" ry="9" fill="#CBD5E1"/>
  <ellipse cx="51.5" cy="88"  rx="6" ry="6" fill="#CBD5E1"/>
  <!-- Shanghai Tower -->
  <rect x="68"  y="80"  width="12" height="100" fill="#94A3B8"/>
  <!-- Jin Mao -->
  <rect x="86"  y="105" width="10" height="75" fill="#CBD5E1"/>
  <!-- SWFC -->
  <rect x="102" y="92"  width="10" height="88" fill="#94A3B8"/>
  <!-- Mid buildings -->
  <rect x="118" y="120" width="14" height="60" fill="#E2E8F0"/>
  <rect x="136" y="112" width="9"  height="68" fill="#CBD5E1"/>
  <rect x="150" y="125" width="11" height="55" fill="#E2E8F0"/>
  <rect x="166" y="108" width="9"  height="72" fill="#CBD5E1"/>
  <rect x="180" y="118" width="12" height="62" fill="#E2E8F0"/>
  <rect x="197" y="130" width="8"  height="50" fill="#CBD5E1"/>
  <rect x="210" y="122" width="10" height="58" fill="#E2E8F0"/>
  <rect x="225" y="135" width="8"  height="45" fill="#CBD5E1"/>
  <rect x="238" y="128" width="9"  height="52" fill="#E2E8F0"/>
  <rect x="252" y="138" width="7"  height="42" fill="#CBD5E1"/>
  <rect x="264" y="130" width="8"  height="50" fill="#E2E8F0"/>
  <rect x="276" y="140" width="6"  height="40" fill="#CBD5E1"/>
  <!-- Ground -->
  <rect x="0" y="180" width="300" height="70" fill="#FFFFFF"/>
  <line x1="0" y1="180" x2="300" y2="180" stroke="#E2E8F0" stroke-width="1"/>
  <!-- Text -->
  <text x="150" y="210" font-family="Inter,-apple-system,sans-serif" font-size="20" font-weight="700" fill="#0F172A" text-anchor="middle">Shanghai Bound</text>
  <text x="150" y="228" font-family="Inter,-apple-system,sans-serif" font-size="12" fill="#64748B" text-anchor="middle">Explore the city like a local</text>
  <!-- CTA -->
  <rect x="90" y="236" width="120" height="8" rx="4" fill="#2563EB" opacity="0"/>
  <text x="150" y="246" font-family="Inter,-apple-system,sans-serif" font-size="12" font-weight="600" fill="#2563EB" text-anchor="middle">shanghaibound.com →</text>
</svg>
